# xmcd
#
# Track frame offsets: 
#        150
#        62127
#        129150
#        173399
#        217578
#        260279
#        285704
#
# Disc length: 4363 seconds
#
# Revision: 1
# Processed by: cddbd v1.5.2PL0 Copyright (c) Steve Scherf et al.
# Submitted via: ExactAudioCopy v0.95b4
#
DISCID=55110907
DTITLE=London Improvisers Orchestra - the hearing continues CD1
DYEAR=2001
DGENRE=Avantgarde
TTITLE0=Proceeding 3
TTITLE1=Concerto for soft-loud key-box
TTITLE2=Morton's mobile
TTITLE3=Fire - in the air
TTITLE4=Dingos creep
TTITLE5=How can you delude yourself
TTITLE6=Drop the handkerchief
EXTD=YEAR: 2001
EXTT0=
EXTT1=
EXTT2=
EXTT3=
EXTT4=
EXTT5=
EXTT6=
PLAYORDER=
